<svg xmlns="http://www.w3.org/2000/svg" width="140" height="38.493" viewBox="0 0 140 38.493">
  <path id="パス_4" data-name="パス 4" d="M15.648,4.525C21.325,2.995,22.9.538,22.9-2.361c0-3.946-2.456-6.6-10.308-6.6-2.174,0-4.832.242-6.644.242-1.691,0-3.422-.04-5.114-.161-.282,0-.362.121-.362.6,0,.443.081.483.362.523,1.53.161,2.778.2,3.221.926.483.846.483,1.369.483,5.154V12.658c0,2.657,0,4.389-.483,5.275-.523.846-1.611.846-3.02,1.007-.242.04-.322.121-.322.523s.081.523.322.523c1.57-.121,3.422-.161,4.993-.161,1.892,0,4.751.242,7.046.242,8.979,0,11.6-4.107,11.6-8.053,0-4.107-3.261-6.644-9.019-7.248ZM8.2-1.676c0-2.456-.04-4.228.483-5.033C9.205-7.555,10.655-7.6,12.1-7.6c4.268,0,6.724,1.933,6.724,5.557,0,3.382-1.772,6.241-8.657,6.241-.725,0-1.329,0-1.973-.04Zm0,7.248c1.047-.04,1.772-.04,2.5-.04,8.979,0,9.744,3.986,9.744,6.523,0,2.939-1.49,6.684-7.57,6.684-1.852,0-3.463-.121-4.067-1.127-.644-.966-.6-2.778-.6-4.953ZM36.223,9.437c3.543-.081,7.731-.04,11.677.081a.7.7,0,0,0,.644-.2.912.912,0,0,0,.2-.684A7.526,7.526,0,0,0,41.3,1.5c-5.194,0-8.818,4.429-8.818,9.7,0,5.436,3.584,9.422,8.858,9.422a7.637,7.637,0,0,0,7.006-3.865c.161-.242.2-.282.2-.4,0-.322-.523-.6-.684-.6a.411.411,0,0,0-.322.2,6.077,6.077,0,0,1-5.476,2.819c-2.657,0-5.959-2.657-5.959-7.771A11.236,11.236,0,0,1,36.223,9.437Zm.242-1.45c.725-3.181,2.456-5.315,4.832-5.315,2.5,0,3.584,2.416,3.785,4.55.04.362-.081.644-.4.644A79.871,79.871,0,0,1,36.465,7.987ZM69.28,7.343c.04-3.06-.04-5.838-5.516-5.838-4.429,0-7.449,2.859-7.449,4.711,0,.765.362,1.168,1.248,1.168,1.611,0,2.778-.725,2.778-1.812a2.455,2.455,0,0,1,.685-2.053,3.205,3.205,0,0,1,2.456-.926c1.731,0,2.537,1.248,2.537,4.147V7.867a2.174,2.174,0,0,1-.926,1.57,9.868,9.868,0,0,1-3.141,1.369c-2.416.765-3.785,1.127-4.832,2.174a4.325,4.325,0,0,0-1.369,3.5c0,1.812,1.168,4.147,4.791,4.147a7.543,7.543,0,0,0,5.677-2.255,3.028,3.028,0,0,0,2.98,2.053,5.122,5.122,0,0,0,3.06-.966c.242-.161.282-.282.081-.6-.161-.282-.362-.282-.523-.2a1.948,1.948,0,0,1-1.087.362c-.966,0-1.57-.966-1.53-3.463Zm-3.3,8.335A3.6,3.6,0,0,1,62.073,19.1a3,3,0,0,1-2.778-3.181c0-1.892.926-3.221,3.221-4.026,2.335-.886,3.06-1.248,3.5-1.852ZM97.3,18.98c-.644-.04-1.288-.04-1.57-.684s-.282-1.409-.282-3.986v-5.4c0-1.812,0-4.107.121-6.885a.414.414,0,0,0-.443-.4,47.74,47.74,0,0,1-5.516,1.087c-.4.081-.443.121-.443.564.04.443.121.523.523.483l1.047-.081a1.142,1.142,0,0,1,1.248.926,11.363,11.363,0,0,1,.242,3.181V13.3a4.557,4.557,0,0,1-.846,3.1,4.719,4.719,0,0,1-3.865,2.255,3.372,3.372,0,0,1-3.261-2.013,8.342,8.342,0,0,1-.483-3.624V8.913c0-1.812,0-4.147.121-6.885a.441.441,0,0,0-.443-.4c-1.651.4-3.906.846-5.557,1.087-.443.081-.483.121-.483.564.04.443.161.523.564.483l.966-.081a1.209,1.209,0,0,1,1.288.926,11.063,11.063,0,0,1,.242,3.181v3.06c0,1.53-.04,2.738-.04,4.228,0,5.033,4.308,5.557,5.718,5.557a6.853,6.853,0,0,0,6.08-3.624c0,1.087-.04,2.053-.081,3.221a.473.473,0,0,0,.443.4,44.57,44.57,0,0,1,5.436-.684c.282,0,.362-.081.362-.443s-.081-.443-.362-.483Zm9.623-15.26-.081,5.6c0,1.892-.081,3.7-.081,5.557,0,2.255.443,3.463,1.248,4.389a5.077,5.077,0,0,0,3.906,1.369,5.988,5.988,0,0,0,4.389-2.134c.242-.242.161-.362-.081-.684a.434.434,0,0,0-.644-.121,3.792,3.792,0,0,1-2.537,1.087,2.552,2.552,0,0,1-2.134-1.047c-.564-.765-.805-1.852-.805-4.067l.081-10.026c1.49,0,3.624.04,5.073.121a.438.438,0,0,0,.4-.282l.362-1.127c.04-.2,0-.242-.2-.242-1.651.04-3.946.081-5.557.081,0-1.208.081-2.819.121-3.946,0-.282-.04-.4-.523-.4-.443,0-.523.121-.644.362A9.173,9.173,0,0,1,107.532.981a6,6,0,0,1-3.1,1.651c-.4.081-.443.2-.443.6,0,.483.081.523.4.523ZM136.2,7.706c.886-2.174,1.409-3.342,2.094-3.946a2.663,2.663,0,0,1,1.812-.725c.282-.04.362-.081.362-.443,0-.443-.081-.483-.362-.483-1.047.081-2.174.121-3.3.121-1.087,0-2.5-.081-3.624-.121-.242,0-.322.081-.322.483,0,.362.081.443.322.443,1.087.081,1.731.161,2.013.765a1.974,1.974,0,0,1,.2.926,8.771,8.771,0,0,1-.725,2.98L132.737,12.9c-.564,1.49-.846,2.255-1.168,3.221-.362-1.087-.644-1.772-1.168-3.141l-2.094-5.234c-.846-2.094-1.329-3.463-1.047-3.986.282-.564,1.248-.644,2.215-.725.242,0,.322-.04.322-.443s-.081-.483-.322-.483c-1.369.081-3.181.121-4.429.121s-2.939-.081-4.268-.121c-.242,0-.322.081-.322.483s.081.443.322.443c1.047.081,1.691.2,2.134.765a18.188,18.188,0,0,1,1.933,3.946l2.98,7.449c.886,2.134,1.409,3.422,2.013,4.953a20.353,20.353,0,0,1-2.98,5.275,2.009,2.009,0,0,1-1.45.926c-.805,0-1.168-.443-1.973-.443-1.168,0-2.255,1.53-2.255,2.617,0,.564.322,1.007,1.53,1.007,3.422,0,5.879-3.3,8.053-8.174.805-1.772,1.611-3.825,2.577-6.241Z" transform="translate(-0.468 8.964)" fill="#fff"/>
</svg>
