<svg xmlns="http://www.w3.org/2000/svg" width="280" height="76.986" viewBox="0 0 280 76.986">
  <path id="パス_3" data-name="パス 3" d="M33.48,37.217c11.355-3.06,14.5-7.972,14.5-13.77,0-7.892-4.912-13.207-20.615-13.207-4.349,0-9.664.483-13.287.483-3.382,0-6.845-.081-10.227-.322-.564,0-.725.242-.725,1.208,0,.886.161.966.725,1.047,3.06.322,5.557.4,6.442,1.852.966,1.691.966,2.738.966,10.308V53.484c0,5.315,0,8.778-.966,10.549-1.047,1.691-3.221,1.691-6.04,2.013-.483.081-.644.242-.644,1.047s.161,1.047.644,1.047c3.141-.242,6.845-.322,9.986-.322,3.785,0,9.5.483,14.093.483,17.958,0,23.192-8.214,23.192-16.106,0-8.214-6.523-13.287-18.039-14.5Zm-14.9-12.4c0-4.912-.081-8.456.966-10.066,1.047-1.691,3.946-1.772,6.845-1.772,8.536,0,13.448,3.865,13.448,11.113,0,6.764-3.543,12.482-17.314,12.482-1.45,0-2.657,0-3.946-.081Zm0,14.5c2.094-.081,3.543-.081,4.993-.081,17.958,0,19.488,7.972,19.488,13.046,0,5.879-2.98,13.368-15.139,13.368-3.7,0-6.926-.242-8.133-2.255-1.288-1.933-1.208-5.557-1.208-9.905ZM74.63,47.042c7.087-.161,15.462-.081,23.353.161a1.4,1.4,0,0,0,1.288-.4,1.824,1.824,0,0,0,.4-1.369c-.242-5.4-4.751-14.254-14.9-14.254-10.388,0-17.636,8.858-17.636,19.408,0,10.871,7.167,18.844,17.716,18.844,6.04,0,10.388-2.174,14.012-7.731.322-.483.4-.564.4-.805,0-.644-1.047-1.208-1.369-1.208a.821.821,0,0,0-.644.4c-2.819,3.865-5.879,5.637-10.952,5.637-5.315,0-11.918-5.315-11.918-15.542A22.473,22.473,0,0,1,74.63,47.042Zm.483-2.9c1.45-6.362,4.912-10.63,9.664-10.63,4.993,0,7.167,4.832,7.57,9.1.081.725-.161,1.288-.805,1.288A159.743,159.743,0,0,1,75.113,44.143Zm65.631-1.288c.081-6.12-.081-11.677-11.033-11.677-8.858,0-14.9,5.718-14.9,9.422,0,1.53.725,2.335,2.5,2.335,3.221,0,5.557-1.45,5.557-3.624,0-1.933.322-3.221,1.369-4.107a6.41,6.41,0,0,1,4.912-1.852c3.463,0,5.073,2.5,5.073,8.295V43.9a4.349,4.349,0,0,1-1.852,3.141c-1.208.966-2.98,1.691-6.281,2.738-4.832,1.53-7.57,2.255-9.664,4.349-1.852,1.852-2.738,3.624-2.738,7.006,0,3.624,2.335,8.295,9.583,8.295a15.085,15.085,0,0,0,11.355-4.51,6.056,6.056,0,0,0,5.959,4.107,10.245,10.245,0,0,0,6.12-1.933c.483-.322.564-.564.161-1.208-.322-.564-.725-.564-1.047-.4a3.9,3.9,0,0,1-2.174.725c-1.933,0-3.141-1.933-3.06-6.926Zm-6.6,16.67c0,3.7-3.141,6.845-7.811,6.845-2.577,0-5.557-2.335-5.557-6.362,0-3.785,1.852-6.442,6.442-8.053,4.671-1.772,6.12-2.5,7.006-3.7Zm62.652,6.6c-1.288-.081-2.577-.081-3.141-1.369s-.564-2.819-.564-7.972V45.995c0-3.624,0-8.214.242-13.77a.828.828,0,0,0-.886-.805,95.482,95.482,0,0,1-11.033,2.174c-.805.161-.886.242-.886,1.127.081.886.242,1.047,1.047.966l2.094-.161a2.284,2.284,0,0,1,2.5,1.852c.483,1.53.483,3.463.483,6.362V54.773c0,2.5-.161,4.026-1.691,6.2a9.437,9.437,0,0,1-7.731,4.51,6.745,6.745,0,0,1-6.523-4.026c-.966-1.933-.966-4.429-.966-7.248V45.995c0-3.624,0-8.295.242-13.77a.882.882,0,0,0-.886-.805c-3.3.805-7.811,1.691-11.113,2.174-.886.161-.966.242-.966,1.127.081.886.322,1.047,1.127.966l1.933-.161a2.417,2.417,0,0,1,2.577,1.852c.483,1.369.483,3.463.483,6.362v6.12c0,3.06-.081,5.476-.081,8.456,0,10.066,8.617,11.113,11.435,11.113a13.707,13.707,0,0,0,12.16-7.248c0,2.174-.081,4.107-.161,6.442a.946.946,0,0,0,.886.805,89.138,89.138,0,0,1,10.871-1.369c.564,0,.725-.161.725-.886s-.161-.886-.725-.966Zm19.246-30.521L215.878,46.8c0,3.785-.161,7.409-.161,11.113,0,4.51.886,6.926,2.5,8.778,2.013,2.094,4.671,2.738,7.811,2.738a11.976,11.976,0,0,0,8.778-4.268c.483-.483.322-.725-.161-1.369a.869.869,0,0,0-1.288-.242,7.584,7.584,0,0,1-5.073,2.174,5.1,5.1,0,0,1-4.268-2.094c-1.127-1.53-1.611-3.7-1.611-8.133l.161-20.052c2.98,0,7.248.081,10.147.242a.876.876,0,0,0,.805-.564l.725-2.255c.081-.4,0-.483-.4-.483-3.3.081-7.892.161-11.113.161,0-2.416.161-5.637.242-7.892,0-.564-.081-.805-1.047-.805-.886,0-1.047.242-1.288.725a18.346,18.346,0,0,1-3.382,5.557,11.993,11.993,0,0,1-6.2,3.3c-.805.161-.886.4-.886,1.208,0,.966.161,1.047.805,1.047Zm58.545,7.972c1.772-4.349,2.818-6.684,4.188-7.892a5.327,5.327,0,0,1,3.624-1.45c.564-.081.725-.161.725-.886,0-.886-.161-.966-.725-.966-2.094.161-4.349.242-6.6.242-2.174,0-4.993-.161-7.248-.242-.483,0-.644.161-.644.966,0,.725.161.886.644.886,2.174.161,3.463.322,4.026,1.53a3.949,3.949,0,0,1,.4,1.852,17.542,17.542,0,0,1-1.45,5.959l-3.865,10.388c-1.127,2.98-1.691,4.51-2.335,6.442-.725-2.174-1.288-3.543-2.335-6.281L258.8,43.66c-1.691-4.188-2.657-6.926-2.094-7.972.564-1.127,2.5-1.288,4.429-1.45.483,0,.644-.081.644-.886s-.161-.966-.644-.966c-2.738.161-6.362.242-8.858.242s-5.879-.161-8.536-.242c-.483,0-.644.161-.644.966s.161.886.644.886c2.094.161,3.382.4,4.268,1.53,1.127,1.369,1.933,3.382,3.865,7.892l5.959,14.9c1.772,4.268,2.819,6.845,4.026,9.905-2.819,6.523-4.51,8.7-5.959,10.549a4.019,4.019,0,0,1-2.9,1.852c-1.611,0-2.335-.886-3.946-.886-2.335,0-4.51,3.06-4.51,5.234,0,1.127.644,2.013,3.06,2.013,6.845,0,11.757-6.6,16.106-16.347,1.611-3.543,3.221-7.65,5.154-12.482Z" transform="translate(-3.12 -10.24)" fill="#333"/>
</svg>
